<svg width="196" height="212" viewBox="0 0 196 212" fill="none" xmlns="http://www.w3.org/2000/svg">
<g filter="url(#filter0_d_65192_4197)">
<path d="M28.0603 203.576L23.8843 194.456C22.8283 192.184 21.5003 190.568 19.9003 189.608C18.3003 188.648 16.2523 188.168 13.7563 188.168H13.0363V203H8.47632V169.496C10.1723 169.336 11.7883 169.224 13.3243 169.16C14.8923 169.064 16.5563 169.016 18.3163 169.016C22.4123 169.016 25.4843 169.848 27.5323 171.512C29.6123 173.176 30.6523 175.32 30.6523 177.944C30.6523 180.28 29.9483 182.168 28.5403 183.608C27.1643 185.016 25.1643 186.072 22.5403 186.776C23.4043 187.16 24.1723 187.624 24.8443 188.168C25.5163 188.68 26.1563 189.384 26.7643 190.28C27.4043 191.144 28.0443 192.28 28.6843 193.688L32.3323 201.56L28.0603 203.576ZM13.0363 184.328H18.3163C20.6203 184.328 22.4923 183.816 23.9323 182.792C25.3723 181.768 26.0923 180.296 26.0923 178.376C26.0923 176.776 25.4203 175.464 24.0763 174.44C22.7323 173.384 20.8123 172.856 18.3163 172.856C17.2283 172.856 16.2523 172.872 15.3883 172.904C14.5243 172.936 13.7403 172.984 13.0363 173.048V184.328Z" fill="#D9C295"/>
<path d="M38.1013 203V169.4H58.2613V173.336H42.6613V183.56H56.1013V187.4H42.6613V199.064H58.2613V203H38.1013Z" fill="#D9C295"/>
<path d="M87.8143 203.48L84.0703 193.88H68.5183L64.7743 203.384L60.8863 201.8L74.0383 169.4H79.0303L91.9903 201.8L87.8143 203.48ZM69.9583 190.04H82.5823L76.2943 173.912L69.9583 190.04Z" fill="#D9C295"/>
<path d="M105.621 203.384C103.797 203.384 102.197 203.336 100.821 203.24C99.4768 203.144 98.1328 203.032 96.7888 202.904V169.496C98.2928 169.336 99.7648 169.224 101.205 169.16C102.645 169.064 104.293 169.016 106.149 169.016C109.029 169.016 111.509 169.464 113.589 170.36C115.701 171.256 117.429 172.488 118.773 174.056C120.149 175.624 121.157 177.448 121.797 179.528C122.469 181.576 122.805 183.784 122.805 186.152C122.805 188.488 122.469 190.696 121.797 192.776C121.125 194.856 120.085 196.696 118.677 198.296C117.301 199.864 115.525 201.112 113.349 202.04C111.205 202.936 108.629 203.384 105.621 203.384ZM105.765 199.4C108.645 199.4 110.997 198.84 112.821 197.72C114.645 196.6 115.989 195.048 116.853 193.064C117.717 191.048 118.149 188.744 118.149 186.152C118.149 183.848 117.717 181.688 116.853 179.672C115.989 177.656 114.661 176.04 112.869 174.824C111.077 173.576 108.789 172.952 106.005 172.952C105.077 172.952 104.229 172.984 103.461 173.048C102.693 173.08 101.989 173.128 101.349 173.192V199.16C102.021 199.256 102.725 199.32 103.461 199.352C104.197 199.384 104.965 199.4 105.765 199.4Z" fill="#D9C295"/>
<path d="M129.508 203V169.4H135.892L145.204 190.664L154.372 169.4H160.9V203H156.34V175.208L147.364 195.416H142.852L133.828 175.208V203H129.508Z" fill="#D9C295"/>
<path d="M169.539 203V169.4H189.699V173.336H174.099V183.56H187.539V187.4H174.099V199.064H189.699V203H169.539Z" fill="#D9C295"/>
</g>
<path d="M114.333 68.7562V60.2062C118.825 58.5437 123.419 57.2969 128.115 56.4656C132.811 55.6344 137.745 55.2188 142.917 55.2188C146.456 55.2188 149.926 55.4562 153.329 55.9312C156.732 56.4062 160.067 57 163.333 57.7125V65.55C160.067 64.4812 156.766 63.6797 153.431 63.1453C150.097 62.6109 146.592 62.3438 142.917 62.3438C137.745 62.3438 132.776 62.9078 128.013 64.0359C123.249 65.1641 118.689 66.7375 114.333 68.7562ZM114.333 107.944V99.2156C118.825 97.5531 123.419 96.3359 128.115 95.5641C132.811 94.7922 137.745 94.4062 142.917 94.4062C146.456 94.4062 149.926 94.6438 153.329 95.1188C156.732 95.5938 160.067 96.1875 163.333 96.9V104.737C160.067 103.669 156.766 102.867 153.431 102.333C150.097 101.798 146.592 101.531 142.917 101.531C137.745 101.531 132.776 102.066 128.013 103.134C123.249 104.203 118.689 105.806 114.333 107.944ZM114.333 88.35V79.8C118.825 78.1375 123.419 76.8906 128.115 76.0594C132.811 75.2281 137.745 74.8125 142.917 74.8125C146.456 74.8125 149.926 75.05 153.329 75.525C156.732 76 160.067 76.5938 163.333 77.3063V85.1437C160.067 84.075 156.766 83.2734 153.431 82.7391C150.097 82.2047 146.592 81.9375 142.917 81.9375C137.745 81.9375 132.776 82.5016 128.013 83.6297C123.249 84.7578 118.689 86.3312 114.333 88.35ZM50.6334 117.562C57.9834 117.562 65.0952 118.305 71.9688 119.789C78.8424 121.273 85.614 123.5 92.2834 126.469V50.4094C86.1584 46.8469 79.523 44.0859 72.3772 42.1266C65.2313 40.1672 57.9834 39.1875 50.6334 39.1875C45.4612 39.1875 40.3911 39.7516 35.423 40.8797C30.4549 42.0078 25.4529 43.4031 20.4167 45.0656V122.372C24.6362 120.709 29.4341 119.492 34.8105 118.72C40.1869 117.948 45.4612 117.562 50.6334 117.562ZM104.533 126.469C111.339 123.5 118.008 121.273 124.542 119.789C131.075 118.305 138.017 117.562 145.367 117.562C150.539 117.562 155.881 117.919 161.394 118.631C166.906 119.344 171.636 120.294 175.583 121.481V45.0656C170.956 43.0469 166.056 41.5625 160.883 40.6125C155.711 39.6625 150.539 39.1875 145.367 39.1875C138.017 39.1875 130.905 40.1672 124.031 42.1266C117.158 44.0859 110.658 46.8469 104.533 50.4094V126.469ZM98.4084 142.5C91.4667 137.988 83.9126 134.514 75.7459 132.08C67.5792 129.645 59.2084 128.428 50.6334 128.428C45.5973 128.428 40.6973 128.962 35.9334 130.031C31.1695 131.1 26.4056 132.406 21.6417 133.95C18.5112 135.256 15.4827 135.078 12.5563 133.416C9.62994 131.753 8.16675 129.378 8.16675 126.291V43.8188C8.16675 42.0375 8.64314 40.4047 9.59591 38.9203C10.5487 37.4359 11.9779 36.2781 13.8834 35.4469C19.6001 33.0719 25.5549 31.3203 31.748 30.1922C37.9411 29.0641 44.2362 28.5 50.6334 28.5C59.2084 28.5 67.5452 29.5094 75.6438 31.5281C83.7424 33.5469 91.3306 36.6344 98.4084 40.7906C105.35 36.6344 112.802 33.5469 120.765 31.5281C128.727 29.5094 136.928 28.5 145.367 28.5C151.764 28.5 158.025 29.0641 164.15 30.1922C170.275 31.3203 176.196 33.0719 181.913 35.4469C183.818 36.2781 185.281 37.4359 186.302 38.9203C187.323 40.4047 187.833 42.0375 187.833 43.8188V126.291C187.833 129.616 186.302 132.139 183.24 133.861C180.177 135.583 177.149 135.612 174.154 133.95C169.526 132.287 164.831 130.952 160.067 129.942C155.303 128.933 150.403 128.428 145.367 128.428C136.792 128.428 128.557 129.675 120.663 132.169C112.768 134.662 105.35 138.106 98.4084 142.5Z" fill="#D9C295"/>
<defs>
<filter id="filter0_d_65192_4197" x="4.47632" y="169.016" width="189.222" height="42.56" filterUnits="userSpaceOnUse" color-interpolation-filters="sRGB">
<feFlood flood-opacity="0" result="BackgroundImageFix"/>
<feColorMatrix in="SourceAlpha" type="matrix" values="0 0 0 0 0 0 0 0 0 0 0 0 0 0 0 0 0 0 127 0" result="hardAlpha"/>
<feOffset dy="4"/>
<feGaussianBlur stdDeviation="2"/>
<feComposite in2="hardAlpha" operator="out"/>
<feColorMatrix type="matrix" values="0 0 0 0 0 0 0 0 0 0 0 0 0 0 0 0 0 0 0.25 0"/>
<feBlend mode="normal" in2="BackgroundImageFix" result="effect1_dropShadow_65192_4197"/>
<feBlend mode="normal" in="SourceGraphic" in2="effect1_dropShadow_65192_4197" result="shape"/>
</filter>
</defs>
</svg>
