<svg width="158" height="119" viewBox="0 0 158 119" fill="none" xmlns="http://www.w3.org/2000/svg">
<path d="M31.3179 100.985L77.3934 118.081C78.2024 118.462 79.1391 118.462 79.9482 118.081L126.024 100.985C128.923 99.621 127.951 95.271 124.746 95.271H32.5953C29.3908 95.271 28.4184 99.621 31.3179 100.985Z" fill="#DBDBDB"/>
<path d="M69.244 72.2452L123.703 97.9291C125.791 98.9415 128.211 97.7401 128.236 95.6793L129.592 42.2922C129.618 40.0686 126.875 38.5357 124.754 39.5885L68.9392 67.2917C66.8181 68.3445 66.9909 71.1529 69.244 72.2452Z" fill="#DBDBDB"/>
<path d="M27.75 42.5842L29.1061 95.9714C29.1304 98.0321 31.5509 99.2335 33.6389 98.2212L88.0977 72.5373C90.3507 71.445 90.5235 68.6365 88.4025 67.5838L32.5876 39.8805C30.4666 38.8278 27.7238 40.3607 27.75 42.5842Z" fill="#DBDBDB"/>
<path d="M126.4 90.4909L80.3261 64.0122C79.3223 63.3479 78.0187 63.3479 77.0149 64.0122L30.9406 90.4909C28.4609 92.1319 29.6227 95.9927 32.5962 95.9927L124.745 95.9927C127.718 95.9927 128.88 92.1319 126.4 90.4909Z" fill="#DBDBDB"/>
<path d="M78.7418 49.3583C80.5982 49.3583 82.1032 48.7445 82.1032 47.9872C82.1032 47.23 80.5982 46.6161 78.7418 46.6161C76.8853 46.6161 75.3804 47.23 75.3804 47.9872C75.3804 48.7445 76.8853 49.3583 78.7418 49.3583Z" fill="#DBDBDB"/>
<path d="M69.6093 42.6646C71.2801 42.6646 72.6345 41.2834 72.6345 39.5796C72.6345 37.8759 71.2801 36.4947 69.6093 36.4947C67.9384 36.4947 66.584 37.8759 66.584 39.5796C66.584 41.2834 67.9384 42.6646 69.6093 42.6646Z" fill="#DBDBDB"/>
<path d="M87.8739 42.6646C89.5447 42.6646 90.8992 41.2834 90.8992 39.5796C90.8992 37.8759 89.5447 36.4947 87.8739 36.4947C86.2031 36.4947 84.8486 37.8759 84.8486 39.5796C84.8486 41.2834 86.2031 42.6646 87.8739 42.6646Z" fill="#DBDBDB"/>
<path d="M105.8 33.4837C107.479 32.0975 108.634 29.4554 108.153 24.5482C108.153 24.5482 107.034 8.78329 96.4992 10.382C96.4992 10.382 93.2171 -0.204294 72.5888 3.69787C71.4284 2.29934 69.3484 0.700634 65.675 0C65.675 0 66.7951 2.36104 66.9604 4.92089C64.0669 5.1197 46.3496 7.20652 49.4394 28.2063C49.4394 28.2063 49.7271 32.2963 51.6808 34.3667V38.7775C50.5285 40.3173 49.832 42.267 49.832 44.3908C49.832 48.4616 52.3665 51.91 55.8328 53.0164C60.2174 61.5749 69.0163 67.0991 78.7819 67.0991C88.5555 67.0991 97.3651 61.5584 101.747 52.9835C105.162 51.8428 107.648 48.4219 107.648 44.3854C107.648 42.2615 106.953 40.3063 105.8 38.7666V33.4837ZM99.2583 47.9022C98.8683 47.9022 98.4999 47.8131 98.1584 47.6527C95.4168 55.7669 87.7891 61.6133 78.7859 61.6133C69.7733 61.6133 62.1361 55.7559 59.404 47.628C59.0423 47.8049 58.647 47.9022 58.2288 47.9022C56.5562 47.9022 55.2143 46.3323 55.2143 44.3895C55.2143 42.4507 56.5562 40.8753 58.2288 40.8753C58.2598 40.8753 58.2893 40.8863 58.3216 40.8863C58.327 40.0883 58.3835 39.1505 58.4789 38.1647C60.524 37.571 62.8125 35.2648 64.2955 32.0221C64.7392 31.0514 65.0686 30.0793 65.2972 29.1387C65.9413 30.5619 67.2374 32.3512 69.8365 33.2342C69.8365 33.2342 69.6119 26.8366 72.3011 25.4655C72.3011 25.4655 75.2134 28.8933 74.7657 30.9499C74.7657 30.9499 81.6646 28.5916 83.1342 24.9239C82.7914 25.8741 82.068 28.4737 83.504 30.492C83.504 30.492 85.5208 26.1483 87.3118 25.6931C87.3118 25.6931 89.7011 30.4358 93.6299 32.9147C95.1251 35.7296 97.2172 37.6916 99.0929 38.1907C99.183 39.1683 99.2381 40.0924 99.2435 40.8794C99.2502 40.8794 99.2529 40.8767 99.2556 40.8767C100.927 40.8767 102.267 42.4507 102.267 44.3922C102.27 46.3296 100.931 47.9022 99.2583 47.9022Z" fill="#DBDBDB"/>
</svg>
