<svg width="162" height="47" viewBox="0 0 162 47" fill="none" xmlns="http://www.w3.org/2000/svg">
<path d="M44.7833 35.296C45.1993 35.296 45.5193 35.488 45.7433 35.872C45.9993 36.256 46.1273 36.784 46.1273 37.456C46.1273 38.704 45.8233 39.696 45.2153 40.432C43.6793 42.288 42.1273 43.728 40.5593 44.752C38.9913 45.744 37.1353 46.24 34.9913 46.24C32.9113 46.24 31.1353 45.68 29.6633 44.56C28.2233 43.44 26.8473 41.52 25.5353 38.8C24.4793 36.624 23.6473 35.024 23.0393 34C22.4313 32.944 21.8233 32.192 21.2153 31.744C20.6393 31.296 19.9193 31.024 19.0553 30.928C18.9273 31.6 18.5593 33.712 17.9513 37.264C17.6953 38.864 17.5353 39.84 17.4713 40.192C17.1513 42.144 16.5113 43.648 15.5513 44.704C14.5913 45.728 13.1353 46.24 11.1833 46.24C9.03931 46.24 7.13531 45.616 5.47131 44.368C3.83931 43.088 2.57531 41.328 1.67931 39.088C0.783313 36.816 0.335313 34.24 0.335313 31.36C0.335313 25.984 1.26331 21.344 3.11931 17.44C5.00731 13.536 7.63131 10.56 10.9913 8.512C14.3833 6.432 18.2873 5.392 22.7033 5.392C25.7753 5.392 28.3513 5.856 30.4313 6.784C32.5113 7.712 34.0473 8.992 35.0393 10.624C36.0633 12.256 36.5753 14.096 36.5753 16.144C36.5753 17.936 36.1433 19.696 35.2793 21.424C34.4473 23.12 33.1833 24.624 31.4873 25.936C29.7913 27.248 27.7273 28.224 25.2953 28.864C26.8313 29.28 28.0153 29.952 28.8473 30.88C29.6793 31.808 30.5113 33.168 31.3433 34.96C32.2393 36.88 33.1193 38.288 33.9833 39.184C34.8793 40.08 35.9033 40.528 37.0553 40.528C38.0793 40.528 39.0553 40.192 39.9833 39.52C40.9113 38.816 42.0793 37.632 43.4873 35.968C43.8713 35.52 44.3033 35.296 44.7833 35.296ZM12.4313 30.88C11.3433 30.88 10.5913 30.624 10.1753 30.112C9.79131 29.6 9.59931 29.024 9.59931 28.384C9.59931 27.616 9.83931 27.008 10.3193 26.56C10.8313 26.112 11.4073 25.888 12.0473 25.888H13.2473C13.7593 22.752 14.2393 20.048 14.6873 17.776C15.1033 15.696 16.4473 14.656 18.7193 14.656C20.5433 14.656 21.4553 15.472 21.4553 17.104C21.4553 17.456 21.4393 17.728 21.4073 17.92L19.9673 25.888C21.6953 25.792 23.2633 25.376 24.6713 24.64C26.1113 23.904 27.2473 22.88 28.0793 21.568C28.9433 20.256 29.3753 18.768 29.3753 17.104C29.3753 15.088 28.6873 13.504 27.3113 12.352C25.9353 11.2 23.9193 10.624 21.2633 10.624C18.1273 10.624 15.3753 11.408 13.0073 12.976C10.6713 14.512 8.84731 16.816 7.53531 19.888C6.22331 22.928 5.56731 26.64 5.56731 31.024C5.56731 33.072 5.77531 34.832 6.19131 36.304C6.60731 37.776 7.11931 38.88 7.72731 39.616C8.33531 40.352 8.91131 40.72 9.45531 40.72C9.87131 40.72 10.2073 40.512 10.4633 40.096C10.7513 39.68 10.9753 39.008 11.1353 38.08L12.4313 30.88ZM62.7042 35.296C63.1202 35.296 63.4402 35.488 63.6642 35.872C63.9202 36.256 64.0482 36.784 64.0482 37.456C64.0482 38.736 63.7442 39.728 63.1362 40.432C61.9522 41.872 60.2722 43.2 58.0962 44.416C55.9522 45.632 53.6482 46.24 51.1842 46.24C47.8242 46.24 45.2162 45.328 43.3602 43.504C41.5042 41.68 40.5762 39.184 40.5762 36.016C40.5762 33.808 41.0402 31.76 41.9682 29.872C42.8962 27.952 44.1762 26.432 45.8082 25.312C47.4722 24.192 49.3442 23.632 51.4242 23.632C53.2802 23.632 54.7682 24.192 55.8882 25.312C57.0082 26.4 57.5682 27.888 57.5682 29.776C57.5682 31.984 56.7682 33.888 55.1682 35.488C53.6002 37.056 50.9282 38.304 47.1522 39.232C47.9522 40.704 49.4722 41.44 51.7122 41.44C53.1522 41.44 54.7842 40.944 56.6082 39.952C58.4642 38.928 60.0642 37.6 61.4082 35.968C61.7922 35.52 62.2242 35.296 62.7042 35.296ZM50.6082 28.336C49.4242 28.336 48.4162 29.024 47.5842 30.4C46.7842 31.776 46.3842 33.44 46.3842 35.392V35.488C48.2722 35.04 49.7602 34.368 50.8482 33.472C51.9362 32.576 52.4802 31.536 52.4802 30.352C52.4802 29.744 52.3042 29.264 51.9522 28.912C51.6322 28.528 51.1842 28.336 50.6082 28.336ZM65.8096 46.24C63.8256 46.24 62.2416 45.52 61.0576 44.08C59.8736 42.64 59.2816 40.752 59.2816 38.416C59.2816 35.856 59.8736 33.44 61.0576 31.168C62.2416 28.864 63.8096 27.024 65.7616 25.648C67.7456 24.24 69.8416 23.536 72.0496 23.536C72.7536 23.536 73.2176 23.68 73.4416 23.968C73.6976 24.224 73.9056 24.704 74.0656 25.408C74.7376 25.28 75.4416 25.216 76.1776 25.216C77.7456 25.216 78.5296 25.776 78.5296 26.896C78.5296 27.568 78.2896 29.168 77.8096 31.696C77.0736 35.376 76.7056 37.936 76.7056 39.376C76.7056 39.856 76.8176 40.24 77.0416 40.528C77.2976 40.816 77.6176 40.96 78.0016 40.96C78.6096 40.96 79.3456 40.576 80.2096 39.808C81.0736 39.008 82.2416 37.728 83.7136 35.968C84.0976 35.52 84.5296 35.296 85.0096 35.296C85.4256 35.296 85.7456 35.488 85.9696 35.872C86.2256 36.256 86.3536 36.784 86.3536 37.456C86.3536 38.736 86.0496 39.728 85.4416 40.432C84.1296 42.064 82.7376 43.44 81.2656 44.56C79.7936 45.68 78.3696 46.24 76.9936 46.24C75.9376 46.24 74.9616 45.888 74.0656 45.184C73.2016 44.448 72.5456 43.456 72.0976 42.208C70.4336 44.896 68.3376 46.24 65.8096 46.24ZM67.5376 41.392C68.2416 41.392 68.9136 40.976 69.5536 40.144C70.1936 39.312 70.6576 38.208 70.9456 36.832L72.7216 28C71.3776 28.032 70.1296 28.544 68.9776 29.536C67.8576 30.496 66.9616 31.776 66.2896 33.376C65.6176 34.976 65.2816 36.672 65.2816 38.464C65.2816 39.456 65.4736 40.192 65.8576 40.672C66.2736 41.152 66.8336 41.392 67.5376 41.392ZM109.716 35.296C110.132 35.296 110.452 35.488 110.676 35.872C110.932 36.256 111.06 36.784 111.06 37.456C111.06 38.736 110.756 39.728 110.148 40.432C108.836 42.032 107.396 43.408 105.828 44.56C104.26 45.68 102.708 46.24 101.172 46.24C98.7404 46.24 96.8844 44.816 95.6044 41.968C94.2604 43.664 93.0764 44.8 92.0524 45.376C91.0604 45.952 89.8924 46.24 88.5484 46.24C86.5964 46.24 84.9804 45.52 83.7004 44.08C82.4524 42.608 81.8284 40.704 81.8284 38.368C81.8284 35.808 82.3724 33.44 83.4604 31.264C84.5484 29.056 86.0364 27.264 87.9244 25.888C89.8444 24.48 91.9884 23.648 94.3564 23.392C94.9644 17.184 96.1164 11.888 97.8124 7.504C99.5404 3.088 101.796 0.879997 104.58 0.879997C105.956 0.879997 107.092 1.504 107.988 2.752C108.916 4 109.38 5.888 109.38 8.416C109.38 12 108.5 16.192 106.74 20.992C104.98 25.792 102.628 30.72 99.6844 35.776C99.8124 37.632 100.084 38.96 100.5 39.76C100.948 40.56 101.508 40.96 102.18 40.96C103.044 40.96 103.924 40.576 104.82 39.808C105.716 39.04 106.916 37.76 108.42 35.968C108.804 35.52 109.236 35.296 109.716 35.296ZM104.052 5.584C103.444 5.584 102.836 6.672 102.228 8.848C101.62 10.992 101.092 13.808 100.644 17.296C100.228 20.784 99.9244 24.432 99.7324 28.24C103.316 20.432 105.108 14.16 105.108 9.424C105.108 8.208 104.996 7.264 104.772 6.592C104.58 5.92 104.34 5.584 104.052 5.584ZM90.2284 41.392C90.8364 41.392 91.4444 41.152 92.0524 40.672C92.6604 40.16 93.4284 39.232 94.3564 37.888C94.0364 36.16 93.8764 34.224 93.8764 32.08C93.8764 31.312 93.9084 30.064 93.9724 28.336C92.2124 28.88 90.7404 30.064 89.5564 31.888C88.4044 33.68 87.8284 35.68 87.8284 37.888C87.8284 40.224 88.6284 41.392 90.2284 41.392ZM110.564 46.24C109.348 46.24 108.484 45.6 107.972 44.32C107.492 43.04 107.252 40.992 107.252 38.176C107.252 34.016 107.844 30.064 109.028 26.32C109.316 25.392 109.78 24.72 110.42 24.304C111.092 23.856 112.02 23.632 113.204 23.632C113.844 23.632 114.292 23.712 114.548 23.872C114.804 24.032 114.932 24.336 114.932 24.784C114.932 25.296 114.692 26.448 114.212 28.24C113.892 29.52 113.636 30.64 113.444 31.6C113.252 32.528 113.092 33.696 112.964 35.104C113.828 32.608 114.852 30.496 116.036 28.768C117.252 27.04 118.484 25.76 119.732 24.928C121.012 24.064 122.212 23.632 123.332 23.632C124.452 23.632 125.236 23.888 125.684 24.4C126.164 24.912 126.404 25.696 126.404 26.752C126.404 27.776 126.1 29.632 125.492 32.32C125.236 33.472 125.06 34.336 124.964 34.912C126.564 30.976 128.34 28.112 130.292 26.32C132.244 24.528 134.068 23.632 135.764 23.632C137.844 23.632 138.884 24.672 138.884 26.752C138.884 28 138.532 30.256 137.828 33.52C137.22 36.304 136.916 38.144 136.916 39.04C136.916 40.32 137.38 40.96 138.308 40.96C138.948 40.96 139.7 40.576 140.564 39.808C141.46 39.008 142.644 37.728 144.116 35.968C144.5 35.52 144.932 35.296 145.412 35.296C145.828 35.296 146.148 35.488 146.372 35.872C146.628 36.256 146.756 36.784 146.756 37.456C146.756 38.736 146.452 39.728 145.844 40.432C144.468 42.128 142.98 43.52 141.38 44.608C139.812 45.696 138.02 46.24 136.004 46.24C134.372 46.24 133.14 45.776 132.308 44.848C131.476 43.888 131.06 42.512 131.06 40.72C131.06 39.824 131.284 38.224 131.732 35.92C132.148 33.904 132.356 32.512 132.356 31.744C132.356 31.232 132.18 30.976 131.828 30.976C131.412 30.976 130.82 31.52 130.052 32.608C129.284 33.664 128.516 35.072 127.748 36.832C126.98 38.592 126.356 40.448 125.876 42.4C125.524 43.936 125.108 44.96 124.628 45.472C124.18 45.984 123.444 46.24 122.42 46.24C121.364 46.24 120.564 45.744 120.02 44.752C119.508 43.728 119.252 42.496 119.252 41.056C119.252 39.84 119.412 38.08 119.732 35.776C119.988 33.728 120.116 32.384 120.116 31.744C120.116 31.232 119.94 30.976 119.588 30.976C119.108 30.976 118.5 31.552 117.764 32.704C117.028 33.856 116.308 35.328 115.604 37.12C114.932 38.912 114.388 40.672 113.972 42.4C113.62 43.904 113.204 44.928 112.724 45.472C112.276 45.984 111.556 46.24 110.564 46.24ZM160.058 36.736C160.474 36.736 160.794 36.928 161.018 37.312C161.274 37.696 161.402 38.224 161.402 38.896C161.402 40.048 161.13 41.04 160.586 41.872C159.69 43.248 158.506 44.32 157.034 45.088C155.594 45.856 153.866 46.24 151.85 46.24C148.778 46.24 146.394 45.328 144.698 43.504C143.002 41.648 142.154 39.152 142.154 36.016C142.154 33.808 142.618 31.76 143.546 29.872C144.474 27.952 145.754 26.432 147.386 25.312C149.05 24.192 150.922 23.632 153.002 23.632C154.858 23.632 156.346 24.192 157.466 25.312C158.586 26.4 159.146 27.888 159.146 29.776C159.146 31.984 158.346 33.888 156.746 35.488C155.178 37.056 152.49 38.304 148.682 39.232C149.45 40.704 150.746 41.44 152.57 41.44C153.882 41.44 154.954 41.136 155.786 40.528C156.65 39.92 157.642 38.896 158.762 37.456C159.146 36.976 159.578 36.736 160.058 36.736ZM152.186 28.336C151.002 28.336 149.994 29.024 149.162 30.4C148.362 31.776 147.962 33.44 147.962 35.392V35.488C149.85 35.04 151.338 34.368 152.426 33.472C153.514 32.576 154.058 31.536 154.058 30.352C154.058 29.744 153.882 29.264 153.53 28.912C153.21 28.528 152.762 28.336 152.186 28.336Z" fill="white"/>
</svg>
