<svg width="196" height="171" viewBox="0 0 196 171" fill="none" xmlns="http://www.w3.org/2000/svg">
<rect width="196" height="171" fill="white"/>
<path d="M114.334 68.7562V60.2062C118.825 58.5437 123.419 57.2969 128.115 56.4656C132.811 55.6344 137.745 55.2188 142.917 55.2188C146.456 55.2188 149.927 55.4562 153.329 55.9312C156.732 56.4062 160.067 57 163.334 57.7125V65.55C160.067 64.4812 156.766 63.6797 153.432 63.1453C150.097 62.6109 146.592 62.3438 142.917 62.3438C137.745 62.3438 132.777 62.9078 128.013 64.0359C123.249 65.1641 118.689 66.7375 114.334 68.7562ZM114.334 107.944V99.2156C118.825 97.5531 123.419 96.3359 128.115 95.5641C132.811 94.7922 137.745 94.4062 142.917 94.4062C146.456 94.4062 149.927 94.6438 153.329 95.1188C156.732 95.5938 160.067 96.1875 163.334 96.9V104.737C160.067 103.669 156.766 102.867 153.432 102.333C150.097 101.798 146.592 101.531 142.917 101.531C137.745 101.531 132.777 102.066 128.013 103.134C123.249 104.203 118.689 105.806 114.334 107.944ZM114.334 88.35V79.8C118.825 78.1375 123.419 76.8906 128.115 76.0594C132.811 75.2281 137.745 74.8125 142.917 74.8125C146.456 74.8125 149.927 75.05 153.329 75.525C156.732 76 160.067 76.5938 163.334 77.3063V85.1437C160.067 84.075 156.766 83.2734 153.432 82.7391C150.097 82.2047 146.592 81.9375 142.917 81.9375C137.745 81.9375 132.777 82.5016 128.013 83.6297C123.249 84.7578 118.689 86.3312 114.334 88.35ZM50.6337 117.562C57.9837 117.562 65.0955 118.305 71.9691 119.789C78.8427 121.273 85.6142 123.5 92.2837 126.469V50.4094C86.1587 46.8469 79.5232 44.0859 72.3774 42.1266C65.2316 40.1672 57.9837 39.1875 50.6337 39.1875C45.4614 39.1875 40.3913 39.7516 35.4232 40.8797C30.4552 42.0078 25.4531 43.4031 20.417 45.0656V122.372C24.6364 120.709 29.4344 119.492 34.8107 118.72C40.1871 117.948 45.4614 117.562 50.6337 117.562ZM104.534 126.469C111.339 123.5 118.009 121.273 124.542 119.789C131.075 118.305 138.017 117.562 145.367 117.562C150.539 117.562 155.882 117.919 161.394 118.631C166.907 119.344 171.636 120.294 175.584 121.481V45.0656C170.956 43.0469 166.056 41.5625 160.884 40.6125C155.711 39.6625 150.539 39.1875 145.367 39.1875C138.017 39.1875 130.905 40.1672 124.032 42.1266C117.158 44.0859 110.659 46.8469 104.534 50.4094V126.469ZM98.4087 142.5C91.467 137.988 83.9128 134.514 75.7462 132.08C67.5795 129.645 59.2087 128.428 50.6337 128.428C45.5975 128.428 40.6975 128.963 35.9337 130.031C31.1698 131.1 26.4059 132.406 21.642 133.95C18.5114 135.256 15.483 135.078 12.5566 133.416C9.63019 131.753 8.16699 129.378 8.16699 126.291V43.8188C8.16699 42.0375 8.64338 40.4047 9.59616 38.9203C10.5489 37.4359 11.9781 36.2781 13.8837 35.4469C19.6003 33.0719 25.5552 31.3203 31.7482 30.1922C37.9413 29.0641 44.2364 28.5 50.6337 28.5C59.2087 28.5 67.5455 29.5094 75.6441 31.5281C83.7427 33.5469 91.3309 36.6344 98.4087 40.7906C105.35 36.6344 112.802 33.5469 120.765 31.5281C128.727 29.5094 136.928 28.5 145.367 28.5C151.764 28.5 158.025 29.0641 164.15 30.1922C170.275 31.3203 176.196 33.0719 181.913 35.4469C183.818 36.2781 185.282 37.4359 186.302 38.9203C187.323 40.4047 187.834 42.0375 187.834 43.8188V126.291C187.834 129.616 186.302 132.139 183.24 133.861C180.177 135.583 177.149 135.612 174.155 133.95C169.527 132.287 164.831 130.952 160.067 129.942C155.303 128.933 150.403 128.428 145.367 128.428C136.792 128.428 128.557 129.675 120.663 132.169C112.768 134.662 105.35 138.106 98.4087 142.5Z" fill="#BDBDBD"/>
</svg>
