<svg width="202" height="187" viewBox="0 0 202 187" fill="none" xmlns="http://www.w3.org/2000/svg">
<g clip-path="url(#clip0_65340_6073)">
<path d="M39.929 157.481L99.7319 186.374C100.638 186.877 101.74 186.877 102.646 186.374L162.449 157.481C165.155 155.978 164.087 151.859 160.992 151.859H41.386C38.2904 151.859 37.223 155.978 39.929 157.481Z" fill="white"/>
<path d="M90.3072 119.587L156.769 155.998C160.746 158.24 165.67 155.397 165.716 150.832L167.415 75.0686C167.462 70.4231 162.438 67.4889 158.415 69.8118L90.2545 109.164C86.2312 111.487 86.2606 117.304 90.3072 119.587Z" fill="white"/>
<path d="M34.5854 75.5048L36.2835 151.268C36.3297 155.833 41.2542 158.676 45.2305 156.434L111.693 120.023C115.739 117.741 115.769 111.923 111.745 109.6L43.5851 70.248C39.5617 67.9251 34.5384 70.8592 34.5854 75.5048Z" fill="white"/>
<path d="M162.812 147.347L103.01 105.37C101.935 104.548 100.443 104.548 99.368 105.37L39.566 147.347C37.2856 149.089 38.5175 152.731 41.3871 152.731L160.991 152.731C163.861 152.731 165.093 149.089 162.812 147.347Z" fill="white"/>
<path d="M100.952 66.719C103.461 66.719 105.496 65.8893 105.496 64.8657C105.496 63.8421 103.461 63.0123 100.952 63.0123C98.4425 63.0123 96.4082 63.8421 96.4082 64.8657C96.4082 65.8893 98.4425 66.719 100.952 66.719Z" fill="white"/>
<path d="M88.6074 57.671C90.8659 57.671 92.6968 55.804 92.6968 53.501C92.6968 51.1979 90.8659 49.3309 88.6074 49.3309C86.3489 49.3309 84.5181 51.1979 84.5181 53.501C84.5181 55.804 86.3489 57.671 88.6074 57.671Z" fill="white"/>
<path d="M113.296 57.671C115.555 57.671 117.386 55.804 117.386 53.501C117.386 51.1979 115.555 49.3309 113.296 49.3309C111.038 49.3309 109.207 51.1979 109.207 53.501C109.207 55.804 111.038 57.671 113.296 57.671Z" fill="white"/>
<path d="M137.527 45.2609C139.797 43.3871 141.358 39.8157 140.708 33.1825C140.708 33.1825 139.196 11.8726 124.956 14.0336C124.956 14.0336 120.519 -0.27615 92.6352 4.99851C91.0667 3.10808 88.255 0.947066 83.2896 0C83.2896 0 84.8036 3.19148 85.0272 6.6517C81.1159 6.92044 57.1669 9.74125 61.3435 38.1273C61.3435 38.1273 61.7324 43.6559 64.3732 46.4544V52.4167C62.8156 54.498 61.8742 57.1335 61.8742 60.0043C61.8742 65.507 65.3002 70.1682 69.9856 71.6638C75.9125 83.2325 87.8061 90.6997 101.007 90.6997C114.218 90.6997 126.126 83.2103 132.049 71.6193C136.666 70.0774 140.026 65.4532 140.026 59.9969C140.026 57.1261 139.087 54.4832 137.527 52.4019V45.2609ZM128.685 64.7508C128.158 64.7508 127.66 64.6303 127.198 64.4135C123.492 75.3817 113.182 83.2844 101.012 83.2844C88.8293 83.2844 78.506 75.3668 74.8129 64.3801C74.324 64.6192 73.7896 64.7508 73.2244 64.7508C70.9634 64.7508 69.1496 62.6287 69.1496 60.0025C69.1496 57.3818 70.9634 55.2523 73.2244 55.2523C73.2662 55.2523 73.3062 55.2672 73.3498 55.2672C73.3571 54.1885 73.4334 52.9208 73.5625 51.5882C76.3268 50.7857 79.4202 47.6684 81.4249 43.2852C82.0247 41.973 82.47 40.659 82.7789 39.3876C83.6495 41.3114 85.4016 43.73 88.9148 44.9236C88.9148 44.9236 88.6112 36.2758 92.2462 34.4224C92.2462 34.4224 96.1829 39.0558 95.5777 41.8359C95.5777 41.8359 104.903 38.6481 106.89 33.6904C106.426 34.9747 105.448 38.4887 107.39 41.2169C107.39 41.2169 110.116 35.3454 112.537 34.7301C112.537 34.7301 115.766 41.1409 121.077 44.4917C123.098 48.2967 125.926 50.9488 128.461 51.6235C128.583 52.9449 128.658 54.1941 128.665 55.2579C128.674 55.2579 128.678 55.2542 128.681 55.2542C130.941 55.2542 132.753 57.3818 132.753 60.0062C132.756 62.625 130.946 64.7508 128.685 64.7508Z" fill="white"/>
<path d="M65.064 113.293C65.064 119.78 64.4048 126.361 64.4048 132.739C64.4048 134.772 68.7578 134.756 70.1176 135.192C72.588 135.985 80.2922 137.158 81.5433 139.66" stroke="#85AFC7" stroke-width="3" stroke-linecap="round" stroke-linejoin="round"/>
<path d="M74.292 120.544C74.292 130.546 74.9512 140.764 74.9512 150.866" stroke="#85AFC7" stroke-width="3" stroke-linecap="round" stroke-linejoin="round"/>
<path d="M97.3636 123.84C91.5738 129.63 91.4011 152.228 103.626 149.511C106.92 148.779 107.205 137.578 106.079 135.046C104.29 131.019 103.402 124.499 98.0228 124.499" stroke="#85AFC7" stroke-width="3" stroke-linecap="round" stroke-linejoin="round"/>
<path d="M122.412 115.271C123.014 121.292 125.708 127.437 125.708 133.398C125.708 138.279 140.231 133.685 141.528 131.091" stroke="#85AFC7" stroke-width="3" stroke-linecap="round" stroke-linejoin="round"/>
<path d="M132.959 115.271C132.959 120.042 133.897 125.553 134.424 130.358C134.745 133.291 134.937 136.053 134.937 139.001C134.937 141.36 135.596 143.653 135.596 146.252" stroke="#85AFC7" stroke-width="3" stroke-linecap="round" stroke-linejoin="round"/>
<path d="M109.888 57.9225H115.82" stroke="#0D99FF" stroke-width="3" stroke-linecap="round" stroke-linejoin="round"/>
<path d="M85.498 58.5817H90.1123" stroke="#0D99FF" stroke-width="3" stroke-linecap="round" stroke-linejoin="round"/>
</g>
<defs>
<clipPath id="clip0_65340_6073">
<rect width="202" height="186.752" fill="white"/>
</clipPath>
</defs>
</svg>
