<svg width="218" height="164" viewBox="0 0 218 164" fill="none" xmlns="http://www.w3.org/2000/svg">
<path d="M42.7262 137.714L107.723 163.714C108.532 164.095 109.468 164.095 110.277 163.714L175.274 137.714C178.173 136.35 177.201 132 173.996 132H44.0035C40.799 132 39.8266 136.35 42.7262 137.714Z" fill="white"/>
<path d="M97.7794 102.32L169.524 135.666C173.7 137.691 178.541 135.288 178.59 131.166L180.871 61.0788C180.923 56.6317 175.437 53.566 171.195 55.6715L97.1698 92.4134C92.9278 94.5189 93.2734 100.136 97.7794 102.32Z" fill="white"/>
<path d="M37.1294 61.4834L39.4102 131.571C39.4587 135.693 44.2997 138.095 48.4758 136.071L120.221 102.725C124.727 100.54 125.072 94.9235 120.83 92.818L46.8046 56.0761C42.5625 53.9706 37.0771 57.0363 37.1294 61.4834Z" fill="white"/>
<path d="M175.651 127.498L110.656 88.4982C109.652 87.8339 108.348 87.8339 107.344 88.4982L42.3491 127.498C39.8694 129.139 41.0312 133 44.0047 133L173.995 133C176.969 133 178.131 129.139 175.651 127.498Z" fill="white"/>
<path d="M109.098 68.387C111.67 68.387 113.755 67.5365 113.755 66.4873C113.755 65.4381 111.67 64.5876 109.098 64.5876C106.526 64.5876 104.44 65.4381 104.44 66.4873C104.44 67.5365 106.526 68.387 109.098 68.387Z" fill="white"/>
<path d="M96.445 59.1127C98.7599 59.1127 100.637 57.1991 100.637 54.8384C100.637 52.4778 98.7599 50.5641 96.445 50.5641C94.1301 50.5641 92.2534 52.4778 92.2534 54.8384C92.2534 57.1991 94.1301 59.1127 96.445 59.1127Z" fill="white"/>
<path d="M121.751 59.1127C124.066 59.1127 125.942 57.1991 125.942 54.8384C125.942 52.4778 124.066 50.5641 121.751 50.5641C119.436 50.5641 117.559 52.4778 117.559 54.8384C117.559 57.1991 119.436 59.1127 121.751 59.1127Z" fill="white"/>
<path d="M146.587 46.3924C148.914 44.4718 150.514 40.8111 149.848 34.0121C149.848 34.0121 148.298 12.1694 133.702 14.3845C133.702 14.3845 129.154 -0.283054 100.573 5.12347C98.9655 3.18579 96.0835 0.970743 90.994 0C90.994 0 92.5458 3.27127 92.775 6.818C88.766 7.09345 64.2182 9.98479 68.4992 39.0805C68.4992 39.0805 68.8979 44.7473 71.6047 47.6158V53.7271C70.0082 55.8605 69.0432 58.5618 69.0432 61.5045C69.0432 67.1446 72.5548 71.9224 77.3574 73.4554C83.4324 85.3133 95.6234 92.9672 109.154 92.9672C122.695 92.9672 134.901 85.2905 140.973 73.4098C145.704 71.8293 149.149 67.0896 149.149 61.4969C149.149 58.5542 148.186 55.8453 146.587 53.7119V46.3924ZM137.524 66.3696C136.984 66.3696 136.474 66.2461 136 66.0238C132.202 77.2662 121.634 85.3665 109.159 85.3665C96.6722 85.3665 86.0908 77.251 82.3053 65.9896C81.8042 66.2347 81.2565 66.3696 80.6772 66.3696C78.3597 66.3696 76.5005 64.1944 76.5005 61.5026C76.5005 58.8164 78.3597 56.6336 80.6772 56.6336C80.72 56.6336 80.761 56.6488 80.8057 56.6488C80.8131 55.5432 80.8914 54.2438 81.0237 52.8779C83.8572 52.0554 87.0279 48.8601 89.0827 44.3673C89.6974 43.0223 90.1538 41.6755 90.4705 40.3723C91.3629 42.3442 93.1587 44.8233 96.7598 46.0467C96.7598 46.0467 96.4487 37.1827 100.175 35.283C100.175 35.283 104.21 40.0322 103.589 42.8818C103.589 42.8818 113.148 39.6143 115.184 34.5326C114.709 35.8491 113.707 39.4509 115.696 42.2473C115.696 42.2473 118.491 36.229 120.972 35.5983C120.972 35.5983 124.283 42.1694 129.726 45.604C131.798 49.5041 134.696 52.2226 137.295 52.914C137.42 54.2685 137.496 55.5489 137.504 56.6393C137.513 56.6393 137.517 56.6355 137.521 56.6355C139.836 56.6355 141.694 58.8164 141.694 61.5064C141.697 64.1906 139.842 66.3696 137.524 66.3696Z" fill="white"/>
</svg>
