<svg width="322" height="204" viewBox="0 0 322 204" fill="none" xmlns="http://www.w3.org/2000/svg">
<rect x="0.25" y="0.25" width="321.5" height="203.5" rx="9.75" fill="#F2F2F2" stroke="#DBDBDB" stroke-width="0.5"/>
<path d="M150.222 90.8543H157.964V97.9258C157.964 99.7015 159.53 101.131 161.474 101.131C163.418 101.131 164.984 99.7015 164.984 97.9258V90.8543H172.726C174.67 90.8543 176.236 89.4243 176.236 87.6486C176.236 85.8729 174.67 84.4429 172.726 84.4429H164.984V77.3715C164.984 75.5958 163.418 74.1658 161.474 74.1658C159.53 74.1658 157.964 75.5958 157.964 77.3715V84.4429H150.222C148.278 84.4429 146.712 85.8729 146.712 87.6486C146.712 89.4086 148.295 90.8543 150.222 90.8543Z" fill="#DBDBDB"/>
<path d="M194.473 45H137.301C130.523 45 125 50.0443 125 56.2514V106.914C125 115.227 132.415 122 141.517 122H194.49C196.434 122 198 120.57 198 118.794V48.2057C197.983 46.43 196.417 45 194.473 45ZM190.963 115.589H141.517C136.286 115.589 132.02 111.691 132.02 106.914V66.8743C133.62 67.5657 135.409 67.9586 137.301 67.9586H190.963V115.589V115.589ZM190.963 61.5471H137.542C134.497 61.5471 132.02 59.2843 132.02 56.5029V56.4714C132.02 53.69 134.497 51.4271 137.542 51.4271H190.963V61.5471V61.5471Z" fill="#DBDBDB"/>
<path d="M83.096 154.604V155.66C83.096 157.256 82.172 158.732 80.444 159.344L81.104 160.34C83.048 159.62 84.128 157.808 84.128 155.66V154.604H83.096ZM83.336 154.604V155.768C83.336 157.712 84.416 159.368 86.276 160.028L86.936 159.044C85.292 158.504 84.356 157.184 84.356 155.768V154.604H83.336ZM87.848 154.028V160.604H89.108V154.028H87.848ZM88.76 156.728V157.772H90.656V156.728H88.76ZM85.58 160.88C83.312 160.88 81.92 161.636 81.92 162.932C81.92 164.228 83.312 164.984 85.58 164.984C87.836 164.984 89.228 164.228 89.228 162.932C89.228 161.636 87.836 160.88 85.58 160.88ZM85.58 161.864C87.104 161.864 87.98 162.236 87.98 162.932C87.98 163.628 87.104 164 85.58 164C84.056 164 83.168 163.628 83.168 162.932C83.168 162.236 84.056 161.864 85.58 161.864ZM95.9111 159.944V161.732H97.1591V159.944H95.9111ZM91.5791 159.248V160.256H101.491V159.248H91.5791ZM92.4791 154.352V155.372H100.579V154.352H92.4791ZM92.5391 157.376V158.384H100.519V157.376H92.5391ZM94.0151 154.76V158.036H95.2751V154.76H94.0151ZM97.7831 154.76V158.036H99.0431V154.76H97.7831ZM92.7671 161.372V164.864H100.291V161.372H92.7671ZM99.0671 162.356V163.856H94.0031V162.356H99.0671ZM113.089 154.016V165.008H114.349V154.016H113.089ZM108.505 154.832C106.873 154.832 105.685 156.332 105.685 158.696C105.685 161.06 106.873 162.572 108.505 162.572C110.149 162.572 111.337 161.06 111.337 158.696C111.337 156.332 110.149 154.832 108.505 154.832ZM108.505 155.972C109.465 155.972 110.125 156.992 110.125 158.696C110.125 160.412 109.465 161.444 108.505 161.444C107.545 161.444 106.885 160.412 106.885 158.696C106.885 156.992 107.545 155.972 108.505 155.972ZM116.941 155.06V162.308H122.089V155.06H116.941ZM120.865 156.056V161.3H118.177V156.056H120.865ZM124.129 154.016V165.008H125.389V154.016H124.129ZM130.188 155.672V157.208C130.188 159.08 129.048 161.132 127.356 161.912L128.076 162.908C129.96 162.008 131.196 159.62 131.196 157.208V155.672H130.188ZM130.452 155.672V157.208C130.452 159.56 131.688 161.78 133.596 162.632L134.292 161.636C132.576 160.916 131.448 159.02 131.448 157.208V155.672H130.452ZM127.752 155.12V156.164H133.884V155.12H127.752ZM135.168 154.028V164.996H136.428V154.028H135.168ZM138.431 159.044V159.98H148.367V159.044H138.431ZM139.583 160.712V161.588H145.919V162.344H139.607V164.3H140.855V163.172H147.155V160.712H139.583ZM139.607 164V164.876H147.491V164H139.607ZM139.679 154.292V155.156H145.883V155.888H139.691V157.76H140.939V156.704H147.119V154.292H139.679ZM139.691 157.484V158.36H147.323V157.484H139.691ZM157.697 156.56V157.58H160.553V156.56H157.697ZM155.177 154.508C153.533 154.508 152.321 155.576 152.321 157.088C152.321 158.6 153.533 159.656 155.177 159.656C156.821 159.656 158.033 158.6 158.033 157.088C158.033 155.576 156.821 154.508 155.177 154.508ZM155.177 155.564C156.137 155.564 156.821 156.164 156.821 157.088C156.821 158 156.137 158.612 155.177 158.612C154.217 158.612 153.521 158 153.521 157.088C153.521 156.164 154.217 155.564 155.177 155.564ZM160.001 154.028V159.92H161.261V154.028H160.001ZM154.121 160.436V164.864H161.261V160.436H160.013V161.66H155.369V160.436H154.121ZM155.369 162.644H160.013V163.856H155.369V162.644ZM163.216 162.68V163.712H173.152V162.68H163.216ZM167.536 160.448V163.1H168.784V160.448H167.536ZM164.38 154.796V155.804H170.716V157.268H164.404V160.304H165.652V158.264H171.964V154.796H164.38ZM164.404 159.788V160.808H172.216V159.788H164.404ZM175.467 159.2V160.208H183.075V159.2H175.467ZM174.255 162.548V163.58H184.191V162.548H174.255ZM175.467 154.988V159.632H176.715V156.02H182.979V154.988H175.467ZM185.27 155.804V156.812H190.622V155.804H185.27ZM187.958 157.436C186.59 157.436 185.582 158.492 185.582 159.992C185.582 161.492 186.59 162.536 187.958 162.536C189.338 162.536 190.334 161.492 190.334 159.992C190.334 158.492 189.338 157.436 187.958 157.436ZM187.958 158.492C188.69 158.492 189.218 159.092 189.218 159.992C189.218 160.904 188.69 161.48 187.958 161.48C187.226 161.48 186.698 160.904 186.698 159.992C186.698 159.092 187.226 158.492 187.958 158.492ZM193.43 154.028V164.996H194.63V154.028H193.43ZM191.87 158.576V159.596H193.826V158.576H191.87ZM191.102 154.256V164.492H192.278V154.256H191.102ZM187.346 154.34V156.428H188.582V154.34H187.346ZM203.265 155.168V155.576C203.265 156.872 201.705 158.12 199.557 158.408L200.037 159.392C202.497 159.02 204.357 157.52 204.357 155.576V155.168H203.265ZM203.613 155.168V155.576C203.613 157.52 205.461 159.02 207.933 159.392L208.401 158.408C206.265 158.12 204.693 156.872 204.693 155.576V155.168H203.613ZM203.325 160.892V164.996H204.573V160.892H203.325ZM199.029 160.184V161.204H208.941V160.184H199.029ZM199.929 154.652V155.66H208.005V154.652H199.929ZM214.376 157.844V158.876H216.356V157.844H214.376ZM212.204 155.024V157.004C212.204 158.876 211.448 160.832 209.9 161.768L210.668 162.716C212.336 161.696 213.176 159.38 213.176 157.004V155.024H212.204ZM212.468 155.024V156.956C212.468 159.188 213.2 161.456 214.844 162.476L215.552 161.492C214.088 160.568 213.416 158.72 213.416 156.956V155.024H212.468ZM218.228 154.028V164.996H219.428V154.028H218.228ZM215.996 154.232V164.468H217.172V154.232H215.996ZM223.423 159.644V162.824H224.671V159.644H223.423ZM227.443 159.644V162.824H228.703V159.644H227.443ZM221.107 162.62V163.652H231.043V162.62H221.107ZM226.051 154.652C223.711 154.652 222.019 155.78 222.019 157.532C222.019 159.272 223.711 160.4 226.051 160.4C228.391 160.4 230.083 159.272 230.083 157.532C230.083 155.78 228.391 154.652 226.051 154.652ZM226.051 155.636C227.707 155.636 228.859 156.368 228.859 157.532C228.859 158.684 227.707 159.416 226.051 159.416C224.395 159.416 223.243 158.684 223.243 157.532C223.243 156.368 224.395 155.636 226.051 155.636ZM236.077 159.452C236.593 159.452 237.001 159.044 237.001 158.48C237.001 157.916 236.593 157.508 236.077 157.508C235.549 157.508 235.153 157.916 235.153 158.48C235.153 159.044 235.549 159.452 236.077 159.452ZM236.077 164.168C236.593 164.168 237.001 163.76 237.001 163.196C237.001 162.62 236.593 162.224 236.077 162.224C235.549 162.224 235.153 162.62 235.153 163.196C235.153 163.76 235.549 164.168 236.077 164.168ZM239.279 166.388C240.395 164.576 241.055 162.632 241.055 160.256C241.055 157.88 240.395 155.936 239.279 154.112L238.415 154.496C239.435 156.224 239.927 158.252 239.927 160.256C239.927 162.26 239.435 164.288 238.415 166.016L239.279 166.388Z" fill="#767676"/>
</svg>
