<svg width="218" height="275" viewBox="0 0 218 275" fill="none" xmlns="http://www.w3.org/2000/svg">
<path d="M42.7262 137.714L107.723 163.714C108.532 164.095 109.468 164.095 110.277 163.714L175.274 137.714C178.173 136.35 177.201 132 173.996 132H44.0035C40.799 132 39.8266 136.35 42.7262 137.714Z" fill="white"/>
<path d="M97.7797 102.32L169.524 135.666C173.7 137.691 178.541 135.288 178.59 131.166L180.871 61.0788C180.923 56.6317 175.438 53.566 171.196 55.6715L97.1701 92.4134C92.928 94.5189 93.2736 100.136 97.7797 102.32Z" fill="white"/>
<path d="M37.1291 61.4834L39.41 131.571C39.4584 135.693 44.2995 138.095 48.4756 136.071L120.22 102.725C124.726 100.54 125.072 94.9235 120.83 92.818L46.8043 56.0761C42.5623 53.9706 37.0768 57.0363 37.1291 61.4834Z" fill="white"/>
<path d="M175.651 127.498L110.656 88.4982C109.652 87.8339 108.348 87.8339 107.344 88.4982L42.3491 127.498C39.8694 129.139 41.0312 133 44.0047 133L173.995 133C176.969 133 178.131 129.139 175.651 127.498Z" fill="white"/>
<path d="M109.098 68.387C111.67 68.387 113.755 67.5365 113.755 66.4873C113.755 65.4381 111.67 64.5876 109.098 64.5876C106.526 64.5876 104.441 65.4381 104.441 66.4873C104.441 67.5365 106.526 68.387 109.098 68.387Z" fill="white"/>
<path d="M96.4448 59.1127C98.7597 59.1127 100.636 57.1991 100.636 54.8384C100.636 52.4778 98.7597 50.5641 96.4448 50.5641C94.1298 50.5641 92.2532 52.4778 92.2532 54.8384C92.2532 57.1991 94.1298 59.1127 96.4448 59.1127Z" fill="white"/>
<path d="M121.751 59.1127C124.066 59.1127 125.942 57.1991 125.942 54.8384C125.942 52.4778 124.066 50.5641 121.751 50.5641C119.436 50.5641 117.559 52.4778 117.559 54.8384C117.559 57.1991 119.436 59.1127 121.751 59.1127Z" fill="white"/>
<path d="M146.587 46.3924C148.914 44.4718 150.514 40.8111 149.848 34.0121C149.848 34.0121 148.298 12.1694 133.702 14.3845C133.702 14.3845 129.154 -0.283054 100.573 5.12347C98.9655 3.18579 96.0835 0.970743 90.994 0C90.994 0 92.5458 3.27127 92.775 6.818C88.766 7.09345 64.2182 9.98479 68.4992 39.0805C68.4992 39.0805 68.8979 44.7473 71.6047 47.6158V53.7271C70.0082 55.8605 69.0432 58.5618 69.0432 61.5045C69.0432 67.1446 72.5548 71.9224 77.3574 73.4554C83.4324 85.3133 95.6234 92.9672 109.154 92.9672C122.695 92.9672 134.901 85.2905 140.973 73.4098C145.704 71.8293 149.149 67.0896 149.149 61.4969C149.149 58.5542 148.186 55.8453 146.587 53.7119V46.3924ZM137.524 66.3696C136.984 66.3696 136.474 66.2461 136 66.0238C132.202 77.2662 121.634 85.3665 109.159 85.3665C96.6722 85.3665 86.0908 77.251 82.3053 65.9896C81.8042 66.2347 81.2565 66.3696 80.6772 66.3696C78.3597 66.3696 76.5005 64.1944 76.5005 61.5026C76.5005 58.8164 78.3597 56.6336 80.6772 56.6336C80.72 56.6336 80.761 56.6488 80.8057 56.6488C80.8131 55.5432 80.8914 54.2438 81.0237 52.8779C83.8572 52.0554 87.0279 48.8601 89.0827 44.3673C89.6974 43.0223 90.1538 41.6755 90.4705 40.3723C91.3629 42.3442 93.1587 44.8233 96.7598 46.0467C96.7598 46.0467 96.4487 37.1827 100.175 35.283C100.175 35.283 104.21 40.0322 103.589 42.8818C103.589 42.8818 113.148 39.6143 115.184 34.5326C114.709 35.8491 113.707 39.4509 115.696 42.2473C115.696 42.2473 118.491 36.229 120.972 35.5983C120.972 35.5983 124.283 42.1694 129.726 45.604C131.798 49.5041 134.696 52.2226 137.295 52.914C137.42 54.2685 137.496 55.5489 137.504 56.6393C137.513 56.6393 137.517 56.6355 137.521 56.6355C139.836 56.6355 141.694 58.8164 141.694 61.5064C141.697 64.1906 139.842 66.3696 137.524 66.3696Z" fill="white"/>
<path d="M74.7833 242.296C75.1993 242.296 75.5193 242.488 75.7433 242.872C75.9993 243.256 76.1273 243.784 76.1273 244.456C76.1273 245.704 75.8233 246.696 75.2153 247.432C73.6793 249.288 72.1273 250.728 70.5593 251.752C68.9913 252.744 67.1353 253.24 64.9913 253.24C62.9113 253.24 61.1353 252.68 59.6633 251.56C58.2233 250.44 56.8473 248.52 55.5353 245.8C54.4793 243.624 53.6473 242.024 53.0393 241C52.4313 239.944 51.8233 239.192 51.2153 238.744C50.6393 238.296 49.9193 238.024 49.0553 237.928C48.9273 238.6 48.5593 240.712 47.9513 244.264C47.6953 245.864 47.5353 246.84 47.4713 247.192C47.1513 249.144 46.5113 250.648 45.5513 251.704C44.5913 252.728 43.1353 253.24 41.1833 253.24C39.0393 253.24 37.1353 252.616 35.4713 251.368C33.8393 250.088 32.5753 248.328 31.6793 246.088C30.7833 243.816 30.3353 241.24 30.3353 238.36C30.3353 232.984 31.2633 228.344 33.1193 224.44C35.0073 220.536 37.6313 217.56 40.9913 215.512C44.3833 213.432 48.2873 212.392 52.7033 212.392C55.7753 212.392 58.3513 212.856 60.4313 213.784C62.5113 214.712 64.0473 215.992 65.0393 217.624C66.0633 219.256 66.5753 221.096 66.5753 223.144C66.5753 224.936 66.1433 226.696 65.2793 228.424C64.4473 230.12 63.1833 231.624 61.4873 232.936C59.7913 234.248 57.7273 235.224 55.2953 235.864C56.8313 236.28 58.0153 236.952 58.8473 237.88C59.6793 238.808 60.5113 240.168 61.3433 241.96C62.2393 243.88 63.1193 245.288 63.9833 246.184C64.8793 247.08 65.9033 247.528 67.0553 247.528C68.0793 247.528 69.0553 247.192 69.9833 246.52C70.9113 245.816 72.0793 244.632 73.4873 242.968C73.8713 242.52 74.3033 242.296 74.7833 242.296ZM42.4313 237.88C41.3433 237.88 40.5913 237.624 40.1753 237.112C39.7913 236.6 39.5993 236.024 39.5993 235.384C39.5993 234.616 39.8393 234.008 40.3193 233.56C40.8313 233.112 41.4073 232.888 42.0473 232.888H43.2473C43.7593 229.752 44.2393 227.048 44.6873 224.776C45.1033 222.696 46.4473 221.656 48.7193 221.656C50.5433 221.656 51.4553 222.472 51.4553 224.104C51.4553 224.456 51.4393 224.728 51.4073 224.92L49.9673 232.888C51.6953 232.792 53.2633 232.376 54.6713 231.64C56.1113 230.904 57.2473 229.88 58.0793 228.568C58.9433 227.256 59.3753 225.768 59.3753 224.104C59.3753 222.088 58.6873 220.504 57.3113 219.352C55.9353 218.2 53.9193 217.624 51.2633 217.624C48.1273 217.624 45.3753 218.408 43.0073 219.976C40.6713 221.512 38.8473 223.816 37.5353 226.888C36.2233 229.928 35.5673 233.64 35.5673 238.024C35.5673 240.072 35.7753 241.832 36.1913 243.304C36.6073 244.776 37.1193 245.88 37.7273 246.616C38.3353 247.352 38.9113 247.72 39.4553 247.72C39.8713 247.72 40.2073 247.512 40.4633 247.096C40.7513 246.68 40.9753 246.008 41.1353 245.08L42.4313 237.88ZM92.7042 242.296C93.1202 242.296 93.4402 242.488 93.6642 242.872C93.9202 243.256 94.0482 243.784 94.0482 244.456C94.0482 245.736 93.7442 246.728 93.1362 247.432C91.9522 248.872 90.2722 250.2 88.0962 251.416C85.9522 252.632 83.6482 253.24 81.1842 253.24C77.8242 253.24 75.2162 252.328 73.3602 250.504C71.5042 248.68 70.5762 246.184 70.5762 243.016C70.5762 240.808 71.0402 238.76 71.9682 236.872C72.8962 234.952 74.1762 233.432 75.8082 232.312C77.4722 231.192 79.3442 230.632 81.4242 230.632C83.2802 230.632 84.7682 231.192 85.8882 232.312C87.0082 233.4 87.5682 234.888 87.5682 236.776C87.5682 238.984 86.7682 240.888 85.1682 242.488C83.6002 244.056 80.9282 245.304 77.1522 246.232C77.9522 247.704 79.4722 248.44 81.7122 248.44C83.1522 248.44 84.7842 247.944 86.6082 246.952C88.4642 245.928 90.0642 244.6 91.4082 242.968C91.7922 242.52 92.2242 242.296 92.7042 242.296ZM80.6082 235.336C79.4242 235.336 78.4162 236.024 77.5842 237.4C76.7842 238.776 76.3842 240.44 76.3842 242.392V242.488C78.2722 242.04 79.7602 241.368 80.8482 240.472C81.9362 239.576 82.4802 238.536 82.4802 237.352C82.4802 236.744 82.3042 236.264 81.9522 235.912C81.6322 235.528 81.1842 235.336 80.6082 235.336ZM95.8096 253.24C93.8256 253.24 92.2416 252.52 91.0576 251.08C89.8736 249.64 89.2816 247.752 89.2816 245.416C89.2816 242.856 89.8736 240.44 91.0576 238.168C92.2416 235.864 93.8096 234.024 95.7616 232.648C97.7456 231.24 99.8416 230.536 102.05 230.536C102.754 230.536 103.218 230.68 103.442 230.968C103.698 231.224 103.906 231.704 104.066 232.408C104.738 232.28 105.442 232.216 106.178 232.216C107.746 232.216 108.53 232.776 108.53 233.896C108.53 234.568 108.29 236.168 107.81 238.696C107.074 242.376 106.706 244.936 106.706 246.376C106.706 246.856 106.818 247.24 107.042 247.528C107.298 247.816 107.618 247.96 108.002 247.96C108.61 247.96 109.346 247.576 110.21 246.808C111.074 246.008 112.242 244.728 113.714 242.968C114.098 242.52 114.53 242.296 115.01 242.296C115.426 242.296 115.746 242.488 115.97 242.872C116.226 243.256 116.354 243.784 116.354 244.456C116.354 245.736 116.05 246.728 115.442 247.432C114.13 249.064 112.738 250.44 111.266 251.56C109.794 252.68 108.37 253.24 106.994 253.24C105.938 253.24 104.962 252.888 104.066 252.184C103.202 251.448 102.546 250.456 102.098 249.208C100.434 251.896 98.3376 253.24 95.8096 253.24ZM97.5376 248.392C98.2416 248.392 98.9136 247.976 99.5536 247.144C100.194 246.312 100.658 245.208 100.946 243.832L102.722 235C101.378 235.032 100.13 235.544 98.9776 236.536C97.8576 237.496 96.9616 238.776 96.2896 240.376C95.6176 241.976 95.2816 243.672 95.2816 245.464C95.2816 246.456 95.4736 247.192 95.8576 247.672C96.2736 248.152 96.8336 248.392 97.5376 248.392ZM139.716 242.296C140.132 242.296 140.452 242.488 140.676 242.872C140.932 243.256 141.06 243.784 141.06 244.456C141.06 245.736 140.756 246.728 140.148 247.432C138.836 249.032 137.396 250.408 135.828 251.56C134.26 252.68 132.708 253.24 131.172 253.24C128.74 253.24 126.884 251.816 125.604 248.968C124.26 250.664 123.076 251.8 122.052 252.376C121.06 252.952 119.892 253.24 118.548 253.24C116.596 253.24 114.98 252.52 113.7 251.08C112.452 249.608 111.828 247.704 111.828 245.368C111.828 242.808 112.372 240.44 113.46 238.264C114.548 236.056 116.036 234.264 117.924 232.888C119.844 231.48 121.988 230.648 124.356 230.392C124.964 224.184 126.116 218.888 127.812 214.504C129.54 210.088 131.796 207.88 134.58 207.88C135.956 207.88 137.092 208.504 137.988 209.752C138.916 211 139.38 212.888 139.38 215.416C139.38 219 138.5 223.192 136.74 227.992C134.98 232.792 132.628 237.72 129.684 242.776C129.812 244.632 130.084 245.96 130.5 246.76C130.948 247.56 131.508 247.96 132.18 247.96C133.044 247.96 133.924 247.576 134.82 246.808C135.716 246.04 136.916 244.76 138.42 242.968C138.804 242.52 139.236 242.296 139.716 242.296ZM134.052 212.584C133.444 212.584 132.836 213.672 132.228 215.848C131.62 217.992 131.092 220.808 130.644 224.296C130.228 227.784 129.924 231.432 129.732 235.24C133.316 227.432 135.108 221.16 135.108 216.424C135.108 215.208 134.996 214.264 134.772 213.592C134.58 212.92 134.34 212.584 134.052 212.584ZM120.228 248.392C120.836 248.392 121.444 248.152 122.052 247.672C122.66 247.16 123.428 246.232 124.356 244.888C124.036 243.16 123.876 241.224 123.876 239.08C123.876 238.312 123.908 237.064 123.972 235.336C122.212 235.88 120.74 237.064 119.556 238.888C118.404 240.68 117.828 242.68 117.828 244.888C117.828 247.224 118.628 248.392 120.228 248.392ZM140.564 253.24C139.348 253.24 138.484 252.6 137.972 251.32C137.492 250.04 137.252 247.992 137.252 245.176C137.252 241.016 137.844 237.064 139.028 233.32C139.316 232.392 139.78 231.72 140.42 231.304C141.092 230.856 142.02 230.632 143.204 230.632C143.844 230.632 144.292 230.712 144.548 230.872C144.804 231.032 144.932 231.336 144.932 231.784C144.932 232.296 144.692 233.448 144.212 235.24C143.892 236.52 143.636 237.64 143.444 238.6C143.252 239.528 143.092 240.696 142.964 242.104C143.828 239.608 144.852 237.496 146.036 235.768C147.252 234.04 148.484 232.76 149.732 231.928C151.012 231.064 152.212 230.632 153.332 230.632C154.452 230.632 155.236 230.888 155.684 231.4C156.164 231.912 156.404 232.696 156.404 233.752C156.404 234.776 156.1 236.632 155.492 239.32C155.236 240.472 155.06 241.336 154.964 241.912C156.564 237.976 158.34 235.112 160.292 233.32C162.244 231.528 164.068 230.632 165.764 230.632C167.844 230.632 168.884 231.672 168.884 233.752C168.884 235 168.532 237.256 167.828 240.52C167.22 243.304 166.916 245.144 166.916 246.04C166.916 247.32 167.38 247.96 168.308 247.96C168.948 247.96 169.7 247.576 170.564 246.808C171.46 246.008 172.644 244.728 174.116 242.968C174.5 242.52 174.932 242.296 175.412 242.296C175.828 242.296 176.148 242.488 176.372 242.872C176.628 243.256 176.756 243.784 176.756 244.456C176.756 245.736 176.452 246.728 175.844 247.432C174.468 249.128 172.98 250.52 171.38 251.608C169.812 252.696 168.02 253.24 166.004 253.24C164.372 253.24 163.14 252.776 162.308 251.848C161.476 250.888 161.06 249.512 161.06 247.72C161.06 246.824 161.284 245.224 161.732 242.92C162.148 240.904 162.356 239.512 162.356 238.744C162.356 238.232 162.18 237.976 161.828 237.976C161.412 237.976 160.82 238.52 160.052 239.608C159.284 240.664 158.516 242.072 157.748 243.832C156.98 245.592 156.356 247.448 155.876 249.4C155.524 250.936 155.108 251.96 154.628 252.472C154.18 252.984 153.444 253.24 152.42 253.24C151.364 253.24 150.564 252.744 150.02 251.752C149.508 250.728 149.252 249.496 149.252 248.056C149.252 246.84 149.412 245.08 149.732 242.776C149.988 240.728 150.116 239.384 150.116 238.744C150.116 238.232 149.94 237.976 149.588 237.976C149.108 237.976 148.5 238.552 147.764 239.704C147.028 240.856 146.308 242.328 145.604 244.12C144.932 245.912 144.388 247.672 143.972 249.4C143.62 250.904 143.204 251.928 142.724 252.472C142.276 252.984 141.556 253.24 140.564 253.24ZM190.058 243.736C190.474 243.736 190.794 243.928 191.018 244.312C191.274 244.696 191.402 245.224 191.402 245.896C191.402 247.048 191.13 248.04 190.586 248.872C189.69 250.248 188.506 251.32 187.034 252.088C185.594 252.856 183.866 253.24 181.85 253.24C178.778 253.24 176.394 252.328 174.698 250.504C173.002 248.648 172.154 246.152 172.154 243.016C172.154 240.808 172.618 238.76 173.546 236.872C174.474 234.952 175.754 233.432 177.386 232.312C179.05 231.192 180.922 230.632 183.002 230.632C184.858 230.632 186.346 231.192 187.466 232.312C188.586 233.4 189.146 234.888 189.146 236.776C189.146 238.984 188.346 240.888 186.746 242.488C185.178 244.056 182.49 245.304 178.682 246.232C179.45 247.704 180.746 248.44 182.57 248.44C183.882 248.44 184.954 248.136 185.786 247.528C186.65 246.92 187.642 245.896 188.762 244.456C189.146 243.976 189.578 243.736 190.058 243.736ZM182.186 235.336C181.002 235.336 179.994 236.024 179.162 237.4C178.362 238.776 177.962 240.44 177.962 242.392V242.488C179.85 242.04 181.338 241.368 182.426 240.472C183.514 239.576 184.058 238.536 184.058 237.352C184.058 236.744 183.882 236.264 183.53 235.912C183.21 235.528 182.762 235.336 182.186 235.336Z" fill="white"/>
</svg>
