<svg width="245" height="245" viewBox="0 0 245 245" fill="none" xmlns="http://www.w3.org/2000/svg">
<g clip-path="url(#clip0_0_3)">
<path d="M122.5 245C190.155 245 245 190.155 245 122.5C245 54.8451 190.155 0 122.5 0C54.8451 0 0 54.8451 0 122.5C0 190.155 54.8451 245 122.5 245Z" fill="#DBDBDB"/>
<path d="M122.5 245C190.155 245 245 190.155 245 122.5C245 54.8451 190.155 0 122.5 0C54.8451 0 0 54.8451 0 122.5C0 190.155 54.8451 245 122.5 245Z" fill="#DBDBDB"/>
<path d="M61.929 188.674L121.732 217.566C122.638 218.07 123.74 218.07 124.646 217.566L184.449 188.674C187.155 187.17 186.087 183.051 182.992 183.051H63.386C60.2904 183.051 59.223 187.17 61.929 188.674Z" fill="white"/>
<path d="M112.307 150.779L178.769 187.19C182.746 189.432 187.67 186.589 187.716 182.024L189.415 106.261C189.462 101.615 184.438 98.6812 180.415 101.004L112.255 140.356C108.231 142.679 108.261 148.497 112.307 150.779Z" fill="white"/>
<path d="M56.5854 106.697L58.2835 182.461C58.3297 187.025 63.2542 189.869 67.2305 187.626L133.693 151.215C137.739 148.933 137.769 143.116 133.745 140.793L65.5851 101.44C61.5617 99.1174 56.5384 102.052 56.5854 106.697Z" fill="white"/>
<path d="M184.812 178.539L125.01 136.562C123.935 135.741 122.443 135.741 121.368 136.562L61.566 178.539C59.2856 180.281 60.5175 183.923 63.3871 183.923H182.991C185.861 183.923 187.093 180.281 184.812 178.539Z" fill="white"/>
<path d="M122.952 97.9113C125.461 97.9113 127.496 97.0815 127.496 96.0579C127.496 95.0344 125.461 94.2046 122.952 94.2046C120.442 94.2046 118.408 95.0344 118.408 96.0579C118.408 97.0815 120.442 97.9113 122.952 97.9113Z" fill="white"/>
<path d="M110.607 88.8633C112.866 88.8633 114.697 86.9963 114.697 84.6933C114.697 82.3902 112.866 80.5232 110.607 80.5232C108.349 80.5232 106.518 82.3902 106.518 84.6933C106.518 86.9963 108.349 88.8633 110.607 88.8633Z" fill="white"/>
<path d="M135.296 88.8633C137.555 88.8633 139.386 86.9963 139.386 84.6933C139.386 82.3902 137.555 80.5232 135.296 80.5232C133.038 80.5232 131.207 82.3902 131.207 84.6933C131.207 86.9963 133.038 88.8633 135.296 88.8633Z" fill="white"/>
<path d="M159.527 76.4531C161.797 74.5794 163.358 71.008 162.708 64.3748C162.708 64.3748 161.196 43.0649 146.956 45.2259C146.956 45.2259 142.519 30.9161 114.635 36.1908C113.067 34.3003 110.255 32.1393 105.29 31.1923C105.29 31.1923 106.804 34.3837 107.027 37.844C103.116 38.1127 79.1669 40.9335 83.3435 69.3196C83.3435 69.3196 83.7324 74.8481 86.3732 77.6467V83.609C84.8156 85.6903 83.8742 88.3258 83.8742 91.1966C83.8742 96.6992 87.3002 101.36 91.9856 102.856C97.9125 114.425 109.806 121.892 123.007 121.892C136.218 121.892 148.126 114.403 154.049 102.812C158.666 101.27 162.026 96.6455 162.026 91.1892C162.026 88.3183 161.087 85.6755 159.527 83.5941V76.4531ZM150.685 95.9431C150.158 95.9431 149.66 95.8226 149.198 95.6058C145.492 106.574 135.182 114.477 123.012 114.477C110.829 114.477 100.506 106.559 96.8129 95.5724C96.324 95.8115 95.7896 95.9431 95.2244 95.9431C92.9634 95.9431 91.1496 93.821 91.1496 91.1948C91.1496 88.5741 92.9634 86.4446 95.2244 86.4446C95.2662 86.4446 95.3062 86.4594 95.3498 86.4594C95.3571 85.3808 95.4334 84.1131 95.5625 82.7805C98.3268 81.978 101.42 78.8606 103.425 74.4775C104.025 73.1653 104.47 71.8512 104.779 70.5798C105.65 72.5036 107.402 74.9223 110.915 76.1158C110.915 76.1158 110.611 67.4681 114.246 65.6147C114.246 65.6147 118.183 70.2481 117.578 73.0281C117.578 73.0281 126.903 69.8404 128.89 64.8826C128.426 66.167 127.448 69.681 129.39 72.4091C129.39 72.4091 132.116 66.5377 134.537 65.9224C134.537 65.9224 137.766 72.3331 143.077 75.684C145.098 79.4889 147.926 82.1411 150.461 82.8157C150.583 84.1372 150.658 85.3863 150.665 86.4502C150.674 86.4502 150.678 86.4464 150.681 86.4464C152.941 86.4464 154.753 88.5741 154.753 91.1985C154.756 93.8173 152.946 95.9431 150.685 95.9431Z" fill="white"/>
<path d="M75.823 144.134C75.823 153.6 75.0913 163.906 77.7104 173.073" stroke="#85AFC7" stroke-width="3" stroke-linecap="round" stroke-linejoin="round"/>
<path d="M76.4521 147.279C79.8293 147.279 85.472 146 85.854 150.774C86.0996 153.845 85.9587 157.135 83.6521 159.442C82.1357 160.958 79.346 160.987 77.99 162.343C77.3803 162.953 79.7142 162.378 80.5764 162.378C82.3465 162.378 84.119 162.353 85.8889 162.378C88.0388 162.409 90.6795 162.553 90.1529 165.384C89.4484 169.171 84.0697 171.011 80.856 171.815" stroke="#85AFC7" stroke-width="3" stroke-linecap="round" stroke-linejoin="round"/>
<path d="M102.246 163.007C96.9264 163.007 90.5694 169.831 98.5061 171.465C99.686 171.708 107.279 172.78 107.279 171.046C107.279 168.459 104.039 166.389 102.246 164.894" stroke="#85AFC7" stroke-width="3" stroke-linecap="round" stroke-linejoin="round"/>
<path d="M119.861 167.411C119.672 165.899 115.143 168.085 114.549 169.019C112.298 172.556 118.562 172.993 120.455 173.387C121.364 173.577 126.719 174.541 126.781 172.933C126.873 170.552 124.8 168.092 123.636 166.153" stroke="#85AFC7" stroke-width="3" stroke-linecap="round" stroke-linejoin="round"/>
<path d="M148.801 148.537C148.274 155.913 146.622 163.169 146.319 170.591C146.172 174.195 146.831 174.743 147.542 171.186" stroke="#85AFC7" stroke-width="3" stroke-linecap="round" stroke-linejoin="round"/>
<path d="M148.801 166.153C148.959 164.886 154.028 163.367 154.952 163.007C159.496 161.237 163.465 158.492 167.674 156.087" stroke="#85AFC7" stroke-width="3" stroke-linecap="round" stroke-linejoin="round"/>
<path d="M159.496 162.378C159.737 163.463 161.338 164.12 162.152 164.685C164.762 166.497 167.264 168.354 169.561 170.556C171.511 172.425 173.883 174.723 176.482 175.589" stroke="#85AFC7" stroke-width="3" stroke-linecap="round" stroke-linejoin="round"/>
</g>
<defs>
<clipPath id="clip0_0_3">
<rect width="245" height="245" fill="white"/>
</clipPath>
</defs>
</svg>
