<svg width="246" height="188" viewBox="0 0 246 188" fill="none" xmlns="http://www.w3.org/2000/svg">
<g filter="url(#filter0_d_65220_4204)">
<path d="M53.0603 175.576L48.8843 166.456C47.8283 164.184 46.5003 162.568 44.9003 161.608C43.3003 160.648 41.2523 160.168 38.7563 160.168H38.0363V175H33.4763V141.496C35.1723 141.336 36.7883 141.224 38.3243 141.16C39.8923 141.064 41.5563 141.016 43.3163 141.016C47.4123 141.016 50.4843 141.848 52.5323 143.512C54.6123 145.176 55.6523 147.32 55.6523 149.944C55.6523 152.28 54.9483 154.168 53.5403 155.608C52.1643 157.016 50.1643 158.072 47.5403 158.776C48.4043 159.16 49.1723 159.624 49.8443 160.168C50.5163 160.68 51.1563 161.384 51.7643 162.28C52.4043 163.144 53.0443 164.28 53.6843 165.688L57.3323 173.56L53.0603 175.576ZM38.0363 156.328H43.3163C45.6203 156.328 47.4923 155.816 48.9323 154.792C50.3723 153.768 51.0923 152.296 51.0923 150.376C51.0923 148.776 50.4203 147.464 49.0763 146.44C47.7323 145.384 45.8123 144.856 43.3163 144.856C42.2283 144.856 41.2523 144.872 40.3883 144.904C39.5243 144.936 38.7403 144.984 38.0363 145.048V156.328ZM63.1013 175V141.4H83.2613V145.336H67.6613V155.56H81.1013V159.4H67.6613V171.064H83.2613V175H63.1013ZM112.814 175.48L109.07 165.88H93.5183L89.7743 175.384L85.8863 173.8L99.0383 141.4H104.03L116.99 173.8L112.814 175.48ZM94.9583 162.04H107.582L101.294 145.912L94.9583 162.04ZM130.621 175.384C128.797 175.384 127.197 175.336 125.821 175.24C124.477 175.144 123.133 175.032 121.789 174.904V141.496C123.293 141.336 124.765 141.224 126.205 141.16C127.645 141.064 129.293 141.016 131.149 141.016C134.029 141.016 136.509 141.464 138.589 142.36C140.701 143.256 142.429 144.488 143.773 146.056C145.149 147.624 146.157 149.448 146.797 151.528C147.469 153.576 147.805 155.784 147.805 158.152C147.805 160.488 147.469 162.696 146.797 164.776C146.125 166.856 145.085 168.696 143.677 170.296C142.301 171.864 140.525 173.112 138.349 174.04C136.205 174.936 133.629 175.384 130.621 175.384ZM130.765 171.4C133.645 171.4 135.997 170.84 137.821 169.72C139.645 168.6 140.989 167.048 141.853 165.064C142.717 163.048 143.149 160.744 143.149 158.152C143.149 155.848 142.717 153.688 141.853 151.672C140.989 149.656 139.661 148.04 137.869 146.824C136.077 145.576 133.789 144.952 131.005 144.952C130.077 144.952 129.229 144.984 128.461 145.048C127.693 145.08 126.989 145.128 126.349 145.192V171.16C127.021 171.256 127.725 171.32 128.461 171.352C129.197 171.384 129.965 171.4 130.765 171.4ZM154.508 175V141.4H160.892L170.204 162.664L179.372 141.4H185.9V175H181.34V147.208L172.364 167.416H167.852L158.828 147.208V175H154.508ZM194.539 175V141.4H214.699V145.336H199.099V155.56H212.539V159.4H199.099V171.064H214.699V175H194.539Z" fill="white"/>
</g>
<path d="M139.167 40.2562V31.7062C143.658 30.0437 148.252 28.7969 152.948 27.9656C157.644 27.1344 162.578 26.7188 167.75 26.7188C171.289 26.7188 174.76 26.9562 178.163 27.4312C181.565 27.9062 184.9 28.5 188.167 29.2125V37.05C184.9 35.9812 181.599 35.1797 178.265 34.6453C174.93 34.1109 171.425 33.8438 167.75 33.8438C162.578 33.8438 157.61 34.4078 152.846 35.5359C148.082 36.6641 143.522 38.2375 139.167 40.2562ZM139.167 79.4437V70.7156C143.658 69.0531 148.252 67.8359 152.948 67.0641C157.644 66.2922 162.578 65.9062 167.75 65.9062C171.289 65.9062 174.76 66.1438 178.163 66.6188C181.565 67.0938 184.9 67.6875 188.167 68.4V76.2375C184.9 75.1687 181.599 74.3672 178.265 73.8328C174.93 73.2984 171.425 73.0312 167.75 73.0312C162.578 73.0312 157.61 73.5656 152.846 74.6344C148.082 75.7031 143.522 77.3062 139.167 79.4437ZM139.167 59.85V51.3C143.658 49.6375 148.252 48.3906 152.948 47.5594C157.644 46.7281 162.578 46.3125 167.75 46.3125C171.289 46.3125 174.76 46.55 178.163 47.025C181.565 47.5 184.9 48.0938 188.167 48.8063V56.6437C184.9 55.575 181.599 54.7734 178.265 54.2391C174.93 53.7047 171.425 53.4375 167.75 53.4375C162.578 53.4375 157.61 54.0016 152.846 55.1297C148.082 56.2578 143.522 57.8312 139.167 59.85ZM75.4667 89.0625C82.8167 89.0625 89.9285 89.8047 96.8021 91.2891C103.676 92.7734 110.447 95 117.117 97.9688V21.9094C110.992 18.3469 104.356 15.5859 97.2104 13.6266C90.0646 11.6672 82.8167 10.6875 75.4667 10.6875C70.2944 10.6875 65.2243 11.2516 60.2563 12.3797C55.2882 13.5078 50.2861 14.9031 45.25 16.5656V93.8719C49.4694 92.2094 54.2674 90.9922 59.6437 90.2203C65.0201 89.4484 70.2944 89.0625 75.4667 89.0625ZM129.367 97.9688C136.172 95 142.842 92.7734 149.375 91.2891C155.908 89.8047 162.85 89.0625 170.2 89.0625C175.372 89.0625 180.715 89.4187 186.227 90.1312C191.74 90.8438 196.469 91.7937 200.417 92.9812V16.5656C195.789 14.5469 190.889 13.0625 185.717 12.1125C180.544 11.1625 175.372 10.6875 170.2 10.6875C162.85 10.6875 155.738 11.6672 148.865 13.6266C141.991 15.5859 135.492 18.3469 129.367 21.9094V97.9688ZM123.242 114C116.3 109.488 108.746 106.014 100.579 103.58C92.4125 101.145 84.0417 99.9281 75.4667 99.9281C70.4306 99.9281 65.5306 100.463 60.7667 101.531C56.0028 102.6 51.2389 103.906 46.475 105.45C43.3444 106.756 40.316 106.578 37.3896 104.916C34.4632 103.253 33 100.878 33 97.7906V15.3188C33 13.5375 33.4764 11.9047 34.4292 10.4203C35.3819 8.93594 36.8111 7.77812 38.7167 6.94687C44.4333 4.57187 50.3882 2.82031 56.5813 1.69219C62.7743 0.564064 69.0694 0 75.4667 0C84.0417 0 92.3785 1.00938 100.477 3.02813C108.576 5.04688 116.164 8.13437 123.242 12.2906C130.183 8.13437 137.635 5.04688 145.598 3.02813C153.56 1.00938 161.761 0 170.2 0C176.597 0 182.858 0.564064 188.983 1.69219C195.108 2.82031 201.029 4.57187 206.746 6.94687C208.651 7.77812 210.115 8.93594 211.135 10.4203C212.156 11.9047 212.667 13.5375 212.667 15.3188V97.7906C212.667 101.116 211.135 103.639 208.073 105.361C205.01 107.083 201.982 107.112 198.988 105.45C194.36 103.787 189.664 102.452 184.9 101.442C180.136 100.433 175.236 99.9281 170.2 99.9281C161.625 99.9281 153.39 101.175 145.496 103.669C137.601 106.162 130.183 109.606 123.242 114Z" fill="white"/>
<defs>
<filter id="filter0_d_65220_4204" x="29.4763" y="141.016" width="189.222" height="42.56" filterUnits="userSpaceOnUse" color-interpolation-filters="sRGB">
<feFlood flood-opacity="0" result="BackgroundImageFix"/>
<feColorMatrix in="SourceAlpha" type="matrix" values="0 0 0 0 0 0 0 0 0 0 0 0 0 0 0 0 0 0 127 0" result="hardAlpha"/>
<feOffset dy="4"/>
<feGaussianBlur stdDeviation="2"/>
<feComposite in2="hardAlpha" operator="out"/>
<feColorMatrix type="matrix" values="0 0 0 0 0 0 0 0 0 0 0 0 0 0 0 0 0 0 0.25 0"/>
<feBlend mode="normal" in2="BackgroundImageFix" result="effect1_dropShadow_65220_4204"/>
<feBlend mode="normal" in="SourceGraphic" in2="effect1_dropShadow_65220_4204" result="shape"/>
</filter>
</defs>
</svg>
